-
http:// www. Speed. Cd       
http:// www. Speed. Cd       the fast  and The Hottest Private Tracker on the net

Please Seed back to make the speed Faster!!!

and don't forget to visit      ...... www. Speed. Cd..........
-[pre][center][IMG]http://lookpic.com/c1/i2/1007/B1sYq4Kj.jpeg[/IMG]

[color=red][size=4][b]Let Me In (2010) BRRip 720P XViD AC3 DiVERSiTY[/b][/size][/color][/center]

[info]
[color=red][b][u]General[/u][/b][/color]
Format                           : AVI
Format/Info                      : Audio Video Interleave
Format profile                   : OpenDML
Format settings                  : rec
File size                        : 3.73 GiB
Duration                         : 1h 55mn
Overall bit rate                 : 4 613 Kbps
Writing application              : AVI-Mux GUI 1.17.8.3, Feb 16 201019:42:50
Source                           : LET_ME_IN_OURDISC

[color=red][b][u]Video[/u][/b][/color]
Format                           : MPEG-4 Visual
Format profile                   : Advanced Simple@L5
Format settings, BVOP            : 4
Format settings, QPel            : No
Format settings, GMC             : 3 warppoints
Format settings, Matrix          : Default (H.263)
Codec ID                         : XVID
Codec ID/Hint                    : XviD
Duration                         : 1h 55mn
Bit rate                         : 3 967 Kbps
Width                            : 1 280 pixels
Height                           : 528 pixels
Display aspect ratio             : 2.40:1
Frame rate                       : 23.976 fps
Color space                      : YUV
Chroma subsampling               : 4:2:0
Bit depth                        : 8 bits
Scan type                        : Progressive
Compression mode                 : Lossy
Bits/(Pixel*Frame)               : 0.245
Stream size                      : 3.21 GiB (86%)
Writing library                  : XviD 1.2.1 (UTC 2008-12-04)

[color=red][b][u]Audio[/u][/b][/color]
Format                           : AC-3
Format/Info                      : Audio Coding 3
Mode extension                   : CM (complete main)
Codec ID                         : 2000
Duration                         : 1h 55mn
Bit rate mode                    : Constant
Bit rate                         : 640 Kbps
Channel(s)                       : 6 channels
Channel positions                : Front: L C R, Side: L R, LFE
Sampling rate                    : 48.0 KHz
Bit depth                        : 16 bits
Compression mode                 : Lossy
Stream size                      : 530 MiB (14%)
Alignment                        : Aligned on interleaves
Interleave, duration             : 64 ms (1.53 video frames)
Interleave, preload duration     : 192 ms

Subtitle                         : English, Spanish (soft subs)

[cast]
Kodi Smit-McPhee                 : Owen
Chloe Moretz                     : Abby
Richard Jenkins                  : The Father
Cara Buono                       : Owen's Mother
Elias Koteas                     : The Policeman
Sasha Barrese                    : Virginia

[plot]
A bullied young boy befriends a young female
vampire who lives in secrecy with her guardian.

[note]

[color=red][b]Sample Included.

Enjoy!

Don't forget to thank the uploader.

Greets to:[/b][/color]

TOXiC, FLAWL3SS, DiGiTAL iNK, iNiTiALanIme, RDX, Zia, Merwais, Smelly,
Hibees,Toon, Tinners, 202122, PureDarkness, mgw012, Skrufern...

... and everyone who spends their own time and cash to share and make P2P great. :clap:

[screens]
[center][IMG]http://lookpic.com/c1/i2/1417/18T4gT8S.png[/IMG]
[IMG]http://lookpic.com/c1/i2/1233/N52KR6DF.png[/IMG]
[IMG]http://lookpic.com/c1/i2/3260/kurJImDG.png[/IMG][/center][/pre]